{
  "extensionsUsed": [
    "KHR_materials_transmission",
    "KHR_materials_clearcoat",
    "KHR_materials_ior",
    "KHR_materials_specular",
    "KHR_materials_emissive_strength",
    "KHR_texture_transform"
  ],
  "accessors": [
    {
      "bufferView": 0,
      "componentType": 5126,
      "count": 8098,
      "type": "VEC3",
      "max": [
        0.015899999,
        0.0028,
        0.007900001
      ],
      "min": [
        -0.015899999,
        -0.0086,
        -0.007900001
      ]
    },
    {
      "bufferView": 1,
      "componentType": 5125,
      "count": 24816,
      "type": "SCALAR",
      "max": [
        8097.0
      ],
      "min": [
        0.0
      ]
    },
    {
      "bufferView": 2,
      "componentType": 5126,
      "count": 8098,
      "type": "VEC3",
      "max": [
        1.0,
        1.0,
        1.0
      ],
      "min": [
        -1.0,
        -1.0,
        -1.0
      ]
    }
  ],
  "asset": {
    "version": "2.0"
  },
  "buffers": [
    {
      "uri": "data:application/octet-stream;base64,",
      "byteLength": 97176
    },
    {
      "uri": "data:application/octet-stream;base64,",
      "byteLength": 99264
    },
    {
      "uri": "data:application/octet-stream;base64,",
      "byteLength": 97176
    }
  ],
  "bufferViews": [
    {
      "buffer": 0,
      "byteLength": 97176,
      "target": 34962
    },
    {
      "buffer": 1,
      "byteLength": 99264,
      "target": 34963
    },
    {
      "buffer": 2,
      "byteLength": 97176,
      "target": 34962
    }
  ],
  "materials": [
    {
      "pbrMetallicRoughness": {
        "baseColorFactor": [
          0.0,
          0.0,
          0.0,
          1.0
        ]
      }
    }
  ],
  "meshes": [
    {
      "primitives": [
        {
          "attributes": {
            "POSITION": 0,
            "NORMAL": 2
          },
          "indices": 1,
          "material": 0
        }
      ]
    }
  ],
  "nodes": [
    {
      "mesh": 0,
      "name": "STLB ATF 11.17.0.187 COLOR="
    }
  ],
  "samplers": [
    {
      "magFilter": 9729,
      "minFilter": 9729
    }
  ],
  "scene": 0,
  "scenes": [
    {
      "nodes": [
        0
      ],
      "extensions": {}
    }
  ],
  "extensions": {}
}